PathFileType	4	(X/Y/Z)	C:/Users/beibeiliu/ov580/test_trc\sequence.20_training_dense_left.trc
DataRate	CameraRate	NumFrames	NumMarkers	Units	OrigDataRate	OrigDataStartFrame	OrigNumFrames
120	120	18	19	mm	120	211	336
Frame#	Time	ThumbCMC			ThumbMCP			ThumbIP			ThumbTip			IndexMCP			IndexPIP			IndexTip			MiddleMCP			MiddlePIP			MiddleTip			RingMCP			RingPIP			RingTip			PinkyMCP			PinkyPIP			PinkyTip			BackHand1			BackHand2			BackHand3	
		X0	Y0	Z0	X1	Y1	Z1	X2	Y2	Z2	X3	Y3	Z3	X4	Y4	Z4	X5	Y5	Z5	X6	Y6	Z6	X7	Y7	Z7	X8	Y8	Z8	X9	Y9	Z9	X10	Y10	Z10	X11	Y11	Z11	X12	Y12	Z12	X13	Y13	Z13	X14	Y14	Z14	X15	Y15	Z15	X16	Y16	Z16	X17	Y17	Z17	X18	Y18	Z18	
210	1.75	-266.816	46.0077	23.2068	-243.436	57.9703	33.8307	-220.212	65.1392	32.9786	-197.171	71.3179	35.3298	-214.654	49.3094	-15.7825	-188.675	55.611	-5.20327	-177.361	52.8686	16.4754	-206.206	24.3528	-17.1381	-181.826	30.8075	-8.56501	-172.686	35.8403	25.8696	-206.83	5.52148	-8.31334	-185.538	16.2679	0.534694	-178.734	26.0459	24.9719	-212.223	-13.8244	3.05264	-189.728	-4.88851	12.6882	-182.775	12.7575	27.0883	-259.435	0.0654642	-1.67343	-280.303	-5.57425	12.6419	-270.743	23.2478	-0.469913	
211	1.75833	-268.972	42.0719	25.2565	-243.514	59.2059	30.6509	-222.053	70.7194	31.5794	-203.76	73.3057	33.1859	-218.264	52.8063	-17.9886	-194.291	58.3966	-10.2125	-178.838	59.9316	15.4065	-209.034	26.0873	-18.7377	-183.409	36.2237	-11.7451	-173.828	42.2563	21.8567	-203.039	9.72134	-10.8181	-182.038	22.3281	1.26995	-180.421	33.4234	26.5959	-205.82	-7.742	1.0417	-189.081	1.46889	9.3507	-181.842	19.1143	23.4181	-253.312	-3.64446	-2.08585	-273.605	-8.54269	11.8633	-273.295	22.6561	-0.236053	
212	1.76667	-272.109	44.9608	25.2452	-252.082	64.6301	32.478	-227.428	73.9476	28.3632	-207.826	77.9052	29.4885	-223.219	53.4939	-19.8165	-200.314	64.8241	-15.4772	-184.934	70.7168	7.99025	-214.514	34.2322	-20.4988	-184.728	41.7427	-13.5166	-177.483	53.8257	15.2841	-206.272	15.5377	-12.5124	-184.063	31.5487	-0.747216	-182.284	40.5717	19.9143	-208.247	-2.48157	0.680871	-186.409	9.33739	6.40146	-181.788	24.0511	23.3966	-250.89	-4.70674	1.34433	-272.067	-12.488	15.0934	-268.921	15.6516	3.22738	
213	1.775	-273.031	36.7064	26.1148	-255.633	64.8966	31.5116	-234.411	75.3598	25.2125	-211.521	86.9394	23.8438	-226.311	55.0006	-23.2389	-207.01	70.7127	-19.881	-190.556	75.5687	-1.21091	-211.686	38.2105	-24.4806	-190.284	51.0794	-20.1531	-179.142	59.9109	8.6585	-206.06	19.3077	-14.5537	-185.738	38.4232	-6.25933	-185.504	50.6392	14.781	-203.14	3.88462	-1.57761	-184.921	19.4203	2.85448	-180.769	36.9154	20.2434	-246.428	-4.64766	0.956925	-264.863	-13.6446	16.8253	-271.788	15.0648	5.34521	
214	1.78333	-273.492	36.5543	25.5082	-255.513	63.5755	27.4909	-237.843	77.9755	23.5757	-221.401	88.6344	23.4254	-231.443	56.5965	-25.339	-210.654	71.1561	-23.0994	-195.806	84.5338	-2.45848	-217.34	39.2794	-25.1591	-193.395	61.2423	-21.4622	-185.021	71.5536	5.57355	-205.32	22.1753	-15.3981	-186.527	40.8432	-10.3013	-187.287	54.8505	15.39	-200.455	6.48407	-2.43938	-182.038	24.4618	2.78951	-181.291	43.4858	19.2459	-244.425	-2.09047	-1.52261	-261.634	-12.4459	16.8109	-268.909	10.6281	2.9985	
215	1.79167	-270.447	36.1747	23.8684	-257.962	63.1423	27.0295	-241.454	79.8724	23.2874	-227.172	91.723	22.7531	-234.838	53.6294	-24.3024	-214.266	72.5273	-27.1076	-199.757	86.0986	-9.18082	-213.79	41.3324	-27.2964	-195.787	60.5835	-25.6198	-186.35	75.9309	4.63654	-203.921	28.9117	-20.0481	-185.832	44.3276	-11.6596	-188.635	60.5688	9.5861	-196.356	9.42363	-4.3021	-182.135	26.6898	-1.80169	-181.772	48.4474	14.3003	-240.378	-1.44392	0.247856	-261.334	-12.9021	15.6586	-266.472	12.4429	0.393503	
216	1.8	-272.001	33.7561	24.3749	-256.382	64.3344	24.7111	-244.885	81.4046	22.7154	-227.809	95.5473	19.3459	-234.732	56.7384	-27.5931	-212.937	78.2111	-27.7677	-201.412	92.0169	-11.3491	-217.818	44.9421	-28.6337	-194.155	67.3828	-26.5154	-186.093	77.2522	2.81598	-205.764	29.3064	-18.9651	-185.875	49.7388	-13.5074	-189.275	65.4745	8.93557	-196.954	14.8699	-7.89342	-181.237	30.6331	-4.87411	-182.394	52.8894	10.0779	-240.57	2.1242	-3.19157	-252.881	-12.5864	13.5605	-263.497	12.095	0.612709	
217	1.80833	-270.486	39.1995	20.78	-256.898	65.6249	23.8591	-245.801	81.1676	23.0131	-229.499	95.7863	19.3044	-234.034	59.7841	-29.4821	-216.281	77.206	-31.1551	-204.292	95.8209	-12.33	-212.8	48.0167	-32.337	-194.884	68.5612	-29.0424	-186.341	81.7992	-1.36539	-201.811	33.7278	-22.017	-184.674	51.3963	-16.2298	-189.558	69.5946	7.59674	-196.222	16.2397	-6.62183	-177.579	32.3928	-4.19442	-183.295	54.7517	11.0912	-237.742	2.82305	-4.40238	-250.99	-11.6085	14.4238	-260.974	12.0061	-0.351161	
218	1.81667	-267.855	38.0616	19.7028	-258.134	64.2599	24.042	-245.047	83.3774	19.3744	-230.329	99.9158	18.3077	-233.632	58.2215	-30.3422	-216.719	78.0576	-33.0812	-205.193	98.2546	-15.3598	-211.314	46.6812	-33.7596	-193.932	67.2399	-31.4722	-187.128	84.7719	-3.49071	-201.369	32.551	-21.9705	-185.785	57.7043	-19.0657	-186.127	70.0999	1.98516	-193.063	16.5624	-6.50216	-179.265	39.9786	-7.70668	-182.495	59.7705	8.20445	-234.203	2.97019	-3.71186	-245.991	-12.5357	12.1088	-259.812	9.19312	-0.387383	
219	1.825	-266.326	36.9227	19.2336	-259.957	66.4297	21.7844	-245.244	87.5534	14.2936	-232.769	99.9759	15.224	-235.082	57.5297	-33.4487	-217.538	78.5566	-37.9616	-206.83	101.482	-18.8759	-213.321	47.3298	-34.1525	-193.843	68.9825	-35.451	-187.588	87.8342	-9.7264	-198.348	37.5821	-26.6886	-188.222	58.8984	-24.8867	-186.802	76.8359	-1.85955	-192.981	23.7968	-10.4648	-176.387	40.833	-10.3748	-181.942	62.1118	0.596444	-228.971	5.37865	-2.9178	-243.749	-10.12	11.9535	-254.494	11.2981	-1.67386	
220	1.83333	-267.184	37.6576	18.0716	-260.672	67.2321	17.2754	-250.82	88.4795	11.8565	-233.678	102.414	6.41496	-234.809	56.3155	-36.9573	-220.933	81.1738	-42.9155	-212.803	101.77	-30.8263	-217.049	48.571	-37.7229	-199.659	74.3571	-42.2298	-194.232	94.9567	-16.3433	-198.288	39.0458	-30.7258	-186.238	60.9078	-29.0092	-188.462	79.9035	-10.9204	-186.332	26.9826	-14.7767	-176.656	45.5051	-17.0043	-183.156	69.3369	-5.88196	-222.826	6.59497	-3.77837	-238.826	-4.71381	12.8598	-253.79	12.8543	-2.70591	
221	1.84167	-267.076	38.5725	17.6015	-260.304	69.7338	13.0541	-249.777	90.2033	4.11422	-236.29	105.772	-1.1339	-236.427	53.5225	-39.5922	-225.463	76.5935	-49.1672	-216.278	101.279	-37.4729	-218.596	48.0503	-43.136	-200.372	73.4391	-46.964	-196.272	96.1597	-22.9985	-202.653	39.9323	-33.361	-189.453	63.7211	-34.9322	-189.385	84.5422	-15.9466	-189.516	30.5591	-18.8923	-176.947	48.5931	-21.839	-179.065	72.3081	-11.9407	-223.25	9.67398	-4.79861	-234.227	-8.73165	17.8187	-253.211	13.1798	-2.96238	
222	1.85	-264.105	38.7451	16.8294	-259.403	70.0881	9.14928	-251.381	89.8322	-2.50092	-236.514	106.135	-10.3924	-241.443	50.3481	-41.9193	-231.897	73.1192	-54.4925	-222.819	98.1917	-47.2817	-220.622	44.3595	-43.6114	-205.512	72.9633	-52.8016	-199.154	95.9732	-30.9789	-203.676	39.725	-37.1395	-191.466	62.3781	-41.0035	-189.911	84.2846	-25.035	-190.795	29.3349	-16.5717	-176.558	51.9342	-25.1461	-179.108	75.2994	-18.3193	-220.198	8.81389	-4.02311	-232.521	-3.17695	18.4383	-248.918	10.5003	2.63872	
223	1.85833	-264.107	40.3026	17.0558	-259.295	67.701	11.5929	-250.515	84.5709	-3.36361	-241.471	104.807	-14.2928	-242.588	47.9949	-44.2967	-232.053	68.2686	-58.6551	-222.881	95.0773	-53.5151	-218.051	42.6807	-46.0916	-209.547	67.8973	-58.8011	-203.844	96.4883	-40.6211	-205.842	37.8099	-37.7122	-194.209	63.6396	-44.8164	-194.672	83.6719	-33.3947	-189.373	32.1241	-23.3864	-180.723	51.4094	-31.2041	-179.924	75.4784	-26.2369	-222.954	9.13562	-4.04178	-226.172	-3.63185	17.9266	-246.593	12.1062	3.77539	
224	1.86667	-260.189	41.6217	17.1497	-254.748	68.5873	5.24496	-253.428	89.24	-5.00624	-242.626	104.93	-17.7521	-244.375	46.1462	-46.0915	-234.886	67.358	-62.5573	-228.679	93.9522	-58.7373	-219.105	41.9434	-49.3704	-207.828	67.3356	-61.6401	-206.975	95.2973	-47.8844	-205.077	36.2351	-36.0318	-193.611	62.2465	-49.2077	-196.694	84.4759	-39.0324	-186.694	31.0029	-23.5525	-177.482	49.8202	-33.5078	-180.842	76.1379	-33.5233	-218.309	9.43866	-0.890108	-226.06	-1.89284	21.5643	-248.328	13.3006	2.75955	
225	1.875	-260.603	43.6633	17.5237	-258.51	71.3745	6.41266	-250.495	84.849	-5.901	-241.048	104.841	-23.9766	-243.11	44.8256	-48.8578	-239.644	66.2068	-65.0041	-228.284	87.3193	-64.5974	-223.224	39.1702	-47.389	-209.141	62.5301	-64.355	-207.219	91.2456	-54.0053	-202.264	36.7676	-41.7012	-199.288	60.8946	-53.5871	-196.559	83.3102	-44.2275	-189.33	33.6045	-26.2299	-179.705	50.6472	-36.9702	-179.857	75.9777	-38.5981	-217.672	10.4956	-0.668055	-223.604	3.14042	25.1171	-245.755	14.7349	5.27885	
226	1.88333	-258.841	46.0717	16.8766	-252.591	71.2525	4.35101	-251.668	91.0413	-12.0284	-239.86	104.564	-27.3982	-244.587	43.4073	-45.8646	-239.824	62.2807	-66.8366	-232.79	86.1481	-69.1288	-222.585	38.7501	-49.9638	-211.879	62.8757	-68.0554	-209.333	91.068	-58.0036	-206.068	37.1559	-42.8048	-196.673	58.4059	-55.2757	-199.393	85.1395	-47.9965	-185.973	32.8809	-27.1455	-177.802	50.4911	-39.5228	-183.061	71.4871	-44.2142	-212.704	13.6268	-2.32249	-222.779	6.15503	22.7839	-242.196	14.8425	8.17949	
227	1.89167	-254.494	46.8283	19.6054	-252.102	72.0334	3.98881	-248.183	88.7123	-12.0153	-238.967	103.107	-28.4998	-246.379	42.1697	-44.3667	-245.088	57.5709	-67.0738	-236.347	85.9715	-71.3663	-226.057	37.6054	-50.8799	-217.018	59.9212	-72.1013	-211.665	88.9286	-64.2381	-204.107	34.5917	-44.8565	-200.944	57.0237	-60.4583	-199.416	83.6924	-53.297	-190.564	32.6147	-25.8371	-180.166	44.9981	-42.0631	-178.904	68.7051	-49.6198	-217.623	14.6006	-3.63793	-218.967	9.26376	23.9194	-245.517	16.8136	5.95116	
